PathFileType	4	(X/Y/Z)	D:\TRACE\spot_10-12-23\spot_arm_body_motion_1_8-v60.trc
DataRate	CameraRate	NumFrames	NumMarkers	Units	OrigDataRate	OrigDataStartFrame	OrigNumFrames
100.00	100.00	      21	9	mm	100.00	1	      7000
Frame#	Time	front left toe			Front right toe			aft left toe			aft right toe			Arm			FL body			FR body			AL Body			AR Body			
		X1	Y1	Z1	X2	Y2	Z2	X3	Y3	Z3	X4	Y4	Z4	X5	Y5	Z5	X6	Y6	Z6	X7	Y7	Z7	X8	Y8	Z8	X9	Y9	Z9	

1	0.000	-275.60782	26.47983	54.05314	246.36552	23.42858	37.98668	-257.20349	58.13486	643.64789	263.63278	54.65380	628.72729	1.97320	843.30042	-150.73175	-91.05476	535.51953	-67.94636	63.09439	539.99133	-74.83866	-56.53427	591.67969	812.14862	85.12199	591.13324	808.93579	
2	0.010	-275.59894	26.44867	54.07348	246.35683	23.41163	37.98920	-257.17648	58.14344	643.69543	263.56400	54.68449	628.73053	1.69937	843.77197	-150.65408	-91.04356	535.58173	-68.03851	63.16367	539.97443	-74.90608	-56.64841	591.73663	812.06030	85.14689	591.25116	808.87476	
3	0.020	-275.55606	26.46519	54.04888	246.39040	23.40532	37.99783	-257.16165	58.15192	643.67743	263.61514	54.68075	628.68970	1.38191	844.29059	-150.74861	-91.05740	535.55133	-68.11597	63.06200	540.03467	-75.04211	-56.60048	591.79462	811.92896	85.15366	591.37775	808.78241	
4	0.030	-275.52655	26.48724	54.05082	246.37129	23.41555	37.96049	-257.15146	58.16594	643.64905	263.62881	54.69885	628.66364	1.02048	844.96356	-150.77682	-91.03897	535.56500	-68.16930	63.12106	540.03107	-75.07605	-56.59404	591.89630	811.85248	84.99050	591.25745	808.23505	
5	0.040	-275.54886	26.48961	54.04404	246.39281	23.44216	37.95156	-257.17926	58.15174	643.62366	263.63416	54.68332	628.66998	0.64241	845.69739	-150.91080	-91.00821	535.57672	-68.22239	63.09810	540.04108	-75.19030	-56.65233	591.96783	811.73419	85.06220	591.29535	808.17975	
6	0.050	-275.56781	26.50934	54.03537	246.39053	23.44813	37.97710	-257.19937	58.14636	643.62213	263.57416	54.64128	628.66095	0.33691	846.32440	-150.99478	-91.07522	535.58960	-68.28162	63.06439	540.02545	-75.21985	-56.72687	591.97919	811.67267	85.09942	591.33624	808.11786	
7	0.060	-275.58911	26.50973	54.02746	246.37466	23.41503	37.94567	-257.18381	58.18090	643.66040	263.61475	54.62269	628.61536	-0.01688	847.17322	-151.08406	-91.05814	535.60736	-68.34058	63.02449	540.04980	-75.32951	-56.68655	592.05927	811.62659	85.07894	591.37042	808.07275	
8	0.070	-275.58728	26.51075	54.01620	246.33426	23.40164	37.90667	-257.20938	58.16619	643.64313	263.63022	54.62819	628.61279	-0.60420	847.92261	-151.20264	-91.02843	535.62781	-68.36323	63.01422	540.12653	-75.37763	-56.72232	592.07611	811.54199	85.08731	591.41321	808.03918	
9	0.080	-275.57346	26.52308	54.00937	246.38765	23.44024	37.95790	-257.18146	58.17402	643.59027	263.60449	54.64033	628.61713	-1.08854	848.66333	-151.22491	-91.03785	535.60785	-68.41236	63.00110	540.08594	-75.42140	-56.67669	592.09558	811.48273	85.07751	591.41882	807.94727	
10	0.090	-275.52454	26.47995	54.02285	246.38405	23.44520	37.90825	-257.15570	58.20622	643.61322	263.62869	54.64439	628.58759	-1.45366	849.33160	-151.37125	-91.07050	535.63153	-68.45766	62.98862	540.13110	-75.45589	-56.72898	592.18604	811.41858	85.05111	591.45441	807.88562	
11	0.100	-275.53299	26.49226	54.00436	246.35811	23.43984	37.92017	-257.16113	58.14799	643.57666	263.62943	54.64048	628.58929	-2.17706	850.08728	-151.43283	-91.10972	535.62524	-68.45616	62.96054	540.16937	-75.49551	-56.72065	592.22388	811.41260	85.42675	591.72308	808.35303	
12	0.110	-275.59094	26.47467	54.01872	246.34137	23.40919	37.88755	-257.20364	58.15508	643.64258	263.58682	54.62584	628.58374	-2.75120	850.77155	-151.50798	-91.13643	535.63678	-68.49361	62.95420	540.14771	-75.53324	-56.71552	592.24945	811.33862	85.42015	591.73151	808.29956	
13	0.120	-275.59451	26.46822	54.00994	246.34003	23.41186	37.91127	-257.20822	58.09607	643.62512	263.57428	54.62829	628.60260	-3.23168	851.23987	-151.70273	-91.15079	535.62396	-68.52983	62.90632	540.19794	-75.60081	-56.74556	592.28711	811.28741	85.40995	591.77716	808.24268	
14	0.130	-275.65213	26.49738	54.00359	246.32033	23.41929	37.90013	-257.19388	58.14496	643.63269	263.60837	54.65709	628.56696	-3.57567	851.63354	-151.85573	-91.19928	535.74194	-68.54720	62.83601	540.22491	-75.54033	-56.80965	592.29175	811.18127	85.15104	592.03082	808.26453	
15	0.140	-275.64447	26.47362	53.99968	246.34198	23.45299	37.85895	-257.21152	58.11723	643.57941	263.60287	54.65465	628.57745	-4.19461	852.22369	-151.79872	-91.23219	535.81842	-68.55771	63.49940	540.28882	-75.20766	-56.77811	592.39807	811.19421	85.39686	591.87518	808.15131	
16	0.150	-275.60181	26.48801	53.98252	246.32994	23.46701	37.87126	-257.19568	58.12927	643.57520	263.60825	54.64268	628.55188	-4.87283	852.67163	-151.92366	-91.29710	535.88049	-68.58182	63.41887	540.54706	-75.62379	-56.81965	592.49084	811.14612	85.14741	592.10583	808.15863	
17	0.160	-275.56885	26.47243	54.00594	246.33693	23.47055	37.86718	-257.18393	58.14709	643.57953	263.59689	54.62249	628.56635	-5.47215	853.02289	-152.07626	-91.38140	535.97717	-68.71146	62.69704	540.25983	-75.24319	-56.91692	592.49048	811.07556	85.14594	592.10712	808.17737	
18	0.170	-275.58041	26.47872	53.99757	246.34752	23.41233	37.87943	-257.19754	58.12149	643.58435	263.59814	54.64040	628.56708	-5.85644	853.20929	-152.18799	-91.40117	536.05682	-68.71934	62.69061	540.72156	-75.89613	-56.79230	592.58716	811.05328	85.14852	592.12036	808.10455	
19	0.180	-275.66943	26.19682	54.06356	246.41245	23.24269	37.95882	-257.23108	57.80670	643.72729	263.58389	54.39031	628.61548	-6.50970	853.48102	-152.14037	-91.46223	536.12817	-68.84687	62.58478	540.84271	-75.82347	-56.82280	592.74957	811.00348	85.12889	592.13007	808.05280	
20	0.190	-275.72549	26.00879	53.90326	246.33429	23.10700	37.83598	-257.32498	57.58948	643.57739	263.62115	54.17618	628.43384	-6.56114	853.57434	-152.33502	-91.49995	536.91486	-68.73143	62.58265	541.54510	-75.78886	-56.98775	593.06403	811.08984	85.05798	592.25970	808.00140	
21	0.200	-275.61642	26.14018	53.87989	246.21030	23.24798	37.74052	-257.24936	57.77918	643.61566	263.56711	54.34351	628.43756	-6.51797	853.39410	-152.85504	-91.72188	538.07990	-68.73579	62.09945	542.74426	-76.09462	-57.05178	593.88477	811.09418	85.09847	592.78113	807.65240	
